<svg width="146" height="40" viewBox="0 0 146 40" fill="none" xmlns="http://www.w3.org/2000/svg">
<g clip-path="url(#clip0)">
<path d="M122.691 35.4894C122.824 35.3943 122.687 35.4927 122.691 35.4894V35.4894ZM145.632 29.5547H125.83C123.093 29.5547 121.774 30.0002 120.814 30.8119C120.479 31.0567 118.854 32.3943 117.097 33.6607C116.785 33.7752 116.75 33.551 116.75 33.547C116.75 33.547 116.769 32.3532 116.752 31.6064C116.722 30.1462 115.994 29.5547 114.035 29.5547H93.8691V33.2094C93.8691 33.9279 94.453 34.5129 95.1715 34.5129C95.1715 34.5129 109.801 34.5213 110.442 34.5103C112.219 34.4831 112.174 35.7132 112.174 35.7132V37.4828C112.174 38.5367 113.037 39.9888 114.689 39.9914C116.355 39.9932 117.36 39.2538 117.36 39.2538C121.407 36.3918 122.46 35.6501 122.691 35.489C122.691 35.489 122.693 35.4864 122.699 35.4817C124.02 34.4945 124.415 34.5301 125.516 34.5121H144.332C145.049 34.5121 145.632 33.9272 145.632 33.2086V33.1932V33.191V29.5547H145.632Z" fill="#7800C8"/>
<path d="M9.68734 20.3248L9.61798 20.3263C9.33138 20.3395 9.00367 20.3498 8.65725 20.3498C7.77468 20.3498 7.41468 20.0888 7.41468 19.4514V12.5714H10.8187V8.3193H7.41468V2.33691H2.4745V8.3193H0V12.5714H2.4745V20.9648C2.4745 24.2929 4.88734 24.7413 7.24881 24.7413C8.55083 24.7413 10.6547 24.5424 10.7431 24.5351L10.9571 24.5156V21.5597C10.9395 21.1325 10.6517 20.3248 9.68734 20.3248Z" fill="white"/>
<path d="M25.095 14.5063C25.5167 13.0285 26.7725 12.0901 28.3695 12.0901C29.9376 12.0901 31.2099 13.0699 31.5541 14.5063H25.095ZM28.3692 7.90625C23.491 7.90625 19.9512 11.489 19.9512 16.4263C19.9512 21.3635 23.5203 24.9474 28.4378 24.9474C32.0448 24.9474 34.8315 23.3286 36.2848 20.3881L36.4253 20.1048L31.4246 19.2343L31.3387 19.3562C30.7644 20.1716 29.7053 20.6585 28.5064 20.6585C26.8495 20.6585 25.5174 19.5657 25.178 17.9694H36.8561V17.5613C36.8561 10.4424 32.4712 7.90625 28.3692 7.90625Z" fill="white"/>
<path d="M47.6868 7.90625C45.9682 7.90625 44.3539 8.56864 43.1605 9.74552C43.1638 9.69634 43.1668 9.64497 43.169 9.59359C43.1209 8.58442 42.308 8.31763 41.882 8.31873H38.3418V24.5356H43.2835V14.1741C44.1579 13.1176 45.2548 12.5371 46.3807 12.5371C47.911 12.5371 48.8255 13.5029 48.8255 15.1198V24.5363H53.7671V13.9859C53.7675 10.2919 51.3811 7.90625 47.6868 7.90625Z" fill="white"/>
<path d="M113.462 7.90625C111.375 7.90625 109.564 8.81964 108.202 10.5536C107.225 8.84313 105.434 7.90625 103.115 7.90625C101.484 7.90625 99.8832 8.57561 98.7085 9.72533C98.7107 9.65781 98.7089 9.59139 98.7071 9.52753C98.546 8.35653 97.55 8.31873 97.4142 8.31873H97.4127H93.8711V24.5356H98.8116V14.1741C99.6861 13.1176 100.76 12.5371 101.842 12.5371C103.33 12.5371 104.219 13.478 104.219 15.0516V24.5363H109.159V14.1741C110.033 13.1176 111.107 12.5371 112.19 12.5371C112.747 12.5371 114.567 12.7184 114.567 15.0516V24.5363H119.509V13.9859C119.508 10.2919 117.134 7.90625 113.462 7.90625Z" fill="white"/>
<path d="M124.346 0C122.642 0 121.258 1.40073 121.258 3.1233C121.258 4.85578 122.614 6.21248 124.346 6.21248C126.097 6.21248 127.47 4.85578 127.47 3.1233C127.47 1.40073 126.068 0 124.346 0Z" fill="white"/>
<path d="M127.03 9.59383C126.981 8.58466 126.169 8.3186 125.743 8.31934H122.088V24.5355H127.03L127.03 24.2992C127.021 19.3725 127.012 9.96337 127.03 9.59383Z" fill="white"/>
<path d="M137.329 20.5121C135.077 20.5121 133.504 18.8325 133.504 16.4285C133.504 14.0035 135.077 12.3088 137.329 12.3088C139.583 12.3088 141.156 14.0035 141.156 16.4285C141.156 18.7947 139.546 20.5121 137.329 20.5121ZM145.622 24.2996C145.614 19.3719 145.604 9.96313 145.622 9.59396C145.573 8.58478 144.761 8.31836 144.335 8.31873L140.928 8.3301V9.57781C139.813 8.46735 138.343 7.90625 136.549 7.90625C132.061 7.90625 128.678 11.5697 128.678 16.4288C128.678 21.2857 132.061 24.9484 136.549 24.9484C138.358 24.9484 139.86 24.3543 141.027 23.1818L141.034 23.3888H141.047C141.161 24.2846 141.894 24.5327 142.285 24.5356H145.623L145.622 24.2996Z" fill="white"/>
<path d="M82.8291 20.5121C80.577 20.5121 79.0031 18.8329 79.0031 16.4281C79.0031 14.0031 80.577 12.3092 82.8291 12.3092C85.0816 12.3092 86.6544 14.0028 86.6544 16.4281C86.6544 18.7951 85.0452 20.5121 82.8291 20.5121ZM91.1216 9.59396C91.075 8.58552 90.2603 8.31836 89.8339 8.31909L86.4284 8.32937V9.57781C85.3124 8.46735 83.843 7.90625 82.0497 7.90625C77.562 7.90625 74.1777 11.5697 74.1777 16.4281C74.1777 21.2864 77.562 24.9481 82.0497 24.9481C83.8585 24.9481 85.3601 24.3547 86.5241 23.1818L86.5337 23.3892H86.5473C86.6625 24.2842 87.3924 24.5323 87.7836 24.5352H91.1216L91.1212 24.2993C91.1139 19.3723 91.1036 9.96276 91.1216 9.59396Z" fill="white"/>
<path d="M64.1897 20.4888C62.0315 20.4888 60.4029 18.7273 60.4029 16.3934C60.4029 14.0403 61.9955 12.3325 64.1897 12.3325C66.3834 12.3325 67.975 14.0407 67.975 16.3934C67.9753 18.7273 66.3482 20.4888 64.1897 20.4888ZM72.8135 3.57906L72.8131 3.50677L72.8087 3.50494C72.7254 2.63374 72.0469 2.35595 71.5845 2.31998L67.873 2.30273V7.55888C67.873 8.26273 67.8972 9.01796 67.9177 9.6198C67.9192 9.68218 67.9221 9.74237 67.9236 9.80072C67.0315 8.7842 65.4344 7.87228 63.1588 7.87228C58.6201 7.87228 55.3262 11.4554 55.3262 16.393C55.3262 21.2506 58.7093 24.9159 63.1944 24.9159C65.2854 24.9159 66.9475 24.015 67.873 22.9802V23.2014C67.873 23.9758 68.332 24.4495 69.1379 24.5035C69.3298 24.5126 72.579 24.5024 72.5794 24.5035L72.815 24.5024V3.65393L72.8153 3.60475L72.815 3.59154C72.8142 3.58787 72.8135 3.58237 72.8135 3.57906Z" fill="white"/>
<path d="M15.579 0C13.8763 0 12.4902 1.40073 12.4902 3.1233C12.4902 4.85578 13.8477 6.21248 15.579 6.21248C17.3302 6.21248 18.7023 4.85578 18.7023 3.1233C18.7023 1.40073 17.3009 0 15.579 0Z" fill="white"/>
<path d="M18.2623 9.59383C18.2143 8.58466 17.401 8.3186 16.9754 8.31934H13.3203V24.5355H18.2634L18.2627 24.2992C18.2543 19.3725 18.244 9.96337 18.2623 9.59383Z" fill="white"/>
</g>
<defs>
<clipPath id="clip0">
<rect width="145.688" height="40" fill="white"/>
</clipPath>
</defs>
</svg>
